<?xml version="1.0" encoding="UTF-8" standalone="no"?>
<svg
   version="1.1"
   id="Layer_1"
   x="0px"
   y="0px"
   width="100%"
   viewBox="0 0 249 108"
   enable-background="new 0 0 249 108"
   xml:space="preserve"
   sodipodi:docname="logo_small.svg"
   inkscape:version="1.3.2 (091e20e, 2023-11-25)"
   xmlns:inkscape="http://www.inkscape.org/namespaces/inkscape"
   xmlns:sodipodi="http://sodipodi.sourceforge.net/DTD/sodipodi-0.dtd"
   xmlns="http://www.w3.org/2000/svg"
   xmlns:svg="http://www.w3.org/2000/svg"><defs
   id="defs12" /><sodipodi:namedview
   id="namedview12"
   pagecolor="#ffffff"
   bordercolor="#000000"
   borderopacity="0.25"
   inkscape:showpageshadow="2"
   inkscape:pageopacity="0.0"
   inkscape:pagecheckerboard="0"
   inkscape:deskcolor="#d1d1d1"
   showgrid="false"
   inkscape:zoom="2.1851852"
   inkscape:cx="124.70339"
   inkscape:cy="54"
   inkscape:window-width="1304"
   inkscape:window-height="757"
   inkscape:window-x="54"
   inkscape:window-y="38"
   inkscape:window-maximized="0"
   inkscape:current-layer="Layer_1" />

<path
   fill="#E5E5E5"
   opacity="1.000000"
   stroke="none"
   d=" M240.206177,91.626633   C243.240295,91.245209 244.609680,91.988129 244.327286,95.050026   C244.055145,98.000992 244.268387,100.996727 244.268387,104.278961   C166.405945,104.278961 88.882957,104.278961 11.175875,104.278961   C11.175875,100.114395 11.175875,96.158272 11.175875,91.913193   C13.280943,91.913193 15.351909,91.913193 17.602356,91.913193   C17.739931,93.948746 17.861053,95.740852 17.998117,97.768845   C91.130753,97.768845 164.183807,97.768845 236.295609,97.768845   C237.691650,95.330574 238.751587,93.479347 240.206177,91.626633  z"
   id="path2" />
<path
   fill="#EAEAEA"
   opacity="1.000000"
   stroke="none"
   d=" M162.999756,16.576801   C114.528458,16.576784 66.557175,16.576784 18.175997,16.576784   C17.958654,18.573967 17.751570,20.476898 17.503996,22.751875   C15.481831,22.751875 13.464189,22.751875 11.223074,22.751875   C11.223074,18.636145 11.223074,14.556067 11.223074,10.252672   C88.849258,10.252672 166.254456,10.252672 243.957642,10.252672   C243.957642,14.328481 243.957642,18.417019 243.957642,22.820122   C242.132416,22.820122 240.236832,22.820122 237.982254,22.820122   C237.813858,20.953575 237.640839,19.035954 237.418976,16.576820   C212.728058,16.576820 188.113907,16.576820 162.999756,16.576801  z"
   id="path3" />
<path
   fill="#F7F7F7"
   opacity="1.000000"
   stroke="none"
   d=" M80.875771,77.812225   C80.839844,63.688141 80.839844,50.048492 80.839844,35.120899   C84.539993,35.941589 87.784988,36.692951 91.048584,37.352253   C91.558098,37.455181 92.185295,37.218334 92.702301,37.004044   C98.032547,34.794735 103.023758,35.017242 106.293945,37.923203   C110.917191,37.104137 114.506401,35.978722 118.105904,35.944767   C123.569710,35.893223 126.014114,38.513657 126.071205,43.959286   C126.191528,55.437149 126.107803,66.917152 126.107803,78.702911   C122.893860,78.702911 119.823448,78.702911 116.167847,78.702911   C116.167847,68.796906 116.213371,58.859657 116.135078,48.923386   C116.116066,46.510780 117.272560,43.321419 112.727898,43.320992   C108.455719,43.320595 108.460922,45.985691 108.473770,49.011711   C108.515396,58.819557 108.489326,68.627693 108.489326,78.721710   C105.107193,78.721710 102.029259,78.721710 98.437660,78.721710   C98.437660,68.777870 98.464279,58.820415 98.419151,48.863289   C98.407715,46.339382 99.243195,43.340778 94.845848,43.317593   C90.409813,43.294205 90.776863,46.141228 90.784897,49.048805   C90.811958,58.845879 90.795204,68.643066 90.795204,79.247833   C87.245087,78.906174 84.078392,78.601410 80.875771,77.812225  z"
   id="path4" />
<path
   fill="#F5F5F5"
   opacity="1.000000"
   stroke="none"
   d=" M195.238586,41.035404   C195.238098,54.678383 195.279480,67.823318 195.220551,80.967804   C195.188004,88.229515 192.550751,90.879570 185.347839,90.996101   C180.201126,91.079369 175.051987,91.012276 169.503113,91.012276   C169.503113,88.587669 169.503113,86.368744 169.503113,83.437775   C174.407715,83.437775 179.453262,83.437775 184.835907,83.437775   C184.835907,80.658295 184.835907,78.573486 184.835907,77.428001   C181.169525,77.428001 177.361938,77.718193 173.620743,77.344246   C170.065033,76.988838 167.884277,74.570183 167.836090,70.946083   C167.710083,61.467339 167.624649,51.981243 167.872559,42.507229   C167.995590,37.805016 171.416153,36.079636 175.690521,35.838326   C180.937103,35.542130 186.182434,37.359863 191.449631,35.815842   C192.367874,35.546665 193.432739,35.777687 195.238571,35.777687   C195.238571,37.417217 195.238571,38.977196 195.238586,41.035404  M185.185516,46.659264   C183.886475,45.566883 182.730530,44.031834 181.234680,43.548218   C180.337952,43.258301 177.893661,44.582207 177.875107,45.230339   C177.640457,53.422340 177.720871,61.623371 177.720871,69.747025   C185.181320,70.186607 185.186264,70.186615 185.194748,63.576843   C185.201584,58.263107 185.194580,52.949356 185.185516,46.659264  z"
   id="path5" />
<path
   fill="#701E1C"
   opacity="1.000000"
   stroke="none"
   d=" M51.754684,40.096336   C46.832436,40.540951 42.814804,40.599983 43.868923,34.042896   C44.402241,30.725399 41.751328,30.894577 39.541935,30.946501   C37.449059,30.995686 34.966202,30.410994 34.974895,33.871109   C35.003769,45.367455 35.013329,56.864025 34.968914,68.360268   C34.955719,71.775146 37.151024,71.909370 39.677643,71.929733   C42.170288,71.949821 43.972740,71.377968 43.934010,68.399994   C43.897175,65.568108 44.054768,62.726997 43.865604,59.907471   C43.801121,58.946335 43.049889,57.313217 42.430420,57.221893   C37.813938,56.541309 39.473888,53.341366 39.231728,50.349159   C44.142956,50.349159 48.695866,50.349159 53.833817,50.349159   C53.833817,57.895653 54.129868,65.344276 53.708359,72.752060   C53.499016,76.431160 50.548176,78.679390 46.849670,78.890388   C42.033607,79.165146 37.176281,79.200424 32.363232,78.905670   C27.710869,78.620773 24.998632,75.804947 24.961866,71.092316   C24.857885,57.764103 24.913109,44.434490 24.941256,31.105507   C24.949368,27.264353 26.834511,24.405916 30.649826,24.090389   C36.225525,23.629272 41.958927,23.231033 47.447205,24.029243   C54.128857,25.001013 56.688129,34.571896 51.754684,40.096336  z"
   id="path6" />
<path
   fill="#F6F6F6"
   opacity="1.000000"
   stroke="none"
   d=" M153.154236,79.011292   C150.601547,78.163902 148.865250,77.851311 146.307053,78.643066   C137.865173,81.255768 132.913147,77.124428 132.884995,68.229576   C132.861877,60.920231 132.860138,53.610683 132.885223,46.301353   C132.913528,38.055077 135.501358,35.136261 143.580887,35.972725   C147.559814,36.384663 151.323730,36.278763 155.201141,35.810387   C156.816422,35.615269 158.474915,35.777973 160.363159,35.777973   C160.363159,50.218189 160.363159,64.277061 160.363159,79.012352   C158.119827,79.012352 155.870941,79.012352 153.154236,79.011292  M148.846542,43.631599   C146.439209,43.624851 143.002518,41.816738 142.884186,46.318127   C142.691589,53.644665 142.714706,60.983868 142.964600,68.306877   C142.998901,69.312439 144.935074,71.120552 145.851639,71.036705   C147.451614,70.890350 150.269821,69.570221 150.275070,68.727661   C150.326492,60.472816 149.901611,52.215004 148.846542,43.631599  z"
   id="path7" />
<path
   fill="#F6F6F6"
   opacity="1.000000"
   stroke="none"
   d=" M212.056641,64.129066   C212.126999,68.098228 210.962723,72.789299 217.102936,71.398796   C218.972656,70.975380 220.444397,68.794434 222.098404,67.418419   C221.823013,66.980095 221.547607,66.541763 221.272217,66.103439   C224.186157,66.103439 227.100082,66.103439 229.985443,66.103439   C231.768341,75.139397 228.832779,78.915718 220.102066,79.010429   C202.521439,79.201164 202.283936,78.965958 202.284470,61.341038   C202.284637,56.020382 202.195480,50.697723 202.311493,45.379566   C202.461029,38.524555 204.916763,36.048962 211.657440,35.823631   C214.813095,35.718143 217.976761,35.725670 221.133560,35.807362   C228.064163,35.986710 230.507355,38.312035 230.702896,45.102879   C230.840851,49.893391 230.729584,54.691074 230.729584,60.123665   C225.331497,60.123665 220.238251,60.282150 215.161362,60.062664   C212.238907,59.936325 211.793716,61.346325 212.056641,64.129066  M212.835983,53.792160   C215.430008,53.792160 218.024017,53.792160 221.029953,53.792160   C221.029953,51.744747 220.942322,49.967545 221.049301,48.202133   C221.236633,45.110607 221.089462,42.945736 216.797073,42.908497   C212.544571,42.871601 211.630997,44.601639 212.013870,48.210129   C212.187164,49.843426 212.129578,51.501217 212.835983,53.792160  z"
   id="path8" />
<path
   fill="#F7F7F7"
   opacity="1.000000"
   stroke="none"
   d=" M62.167526,42.000835   C62.167526,35.683800 62.167526,29.866550 62.167526,23.689449   C65.490822,23.689449 68.551277,23.689449 71.949631,23.689449   C71.949631,41.940937 71.949631,60.185478 71.949631,78.721039   C68.994682,78.721039 65.899605,78.721039 62.167526,78.721039   C62.167526,66.699051 62.167526,54.599834 62.167526,42.000835  z"
   id="path9" />



</svg>
